<svg width="100" xmlns="http://www.w3.org/2000/svg" viewBox="0 0 91.8 83.9"><defs><style>.cls-1{fill:#e7bc3d;}.cls-2{fill:#4bbec5;}</style></defs><g id="Capa_2" data-name="Capa 2"><g id="Capa_1-2" data-name="Capa 1"><path class="cls-1" d="M37.3,24.6a8.41,8.41,0,0,0-4.5-1.2h-.2a8.13,8.13,0,0,0-7.3,4.3L1,70.7A9.07,9.07,0,0,0,0,75a8.22,8.22,0,0,0,2.5,6.1A9,9,0,0,0,9,83.9a9.77,9.77,0,0,0,4.7-1.3A7.91,7.91,0,0,0,17,79.1l24.1-43a7.1,7.1,0,0,0,.8-3.7,22.28,22.28,0,0,0-.3-2.7A8.39,8.39,0,0,0,37.3,24.6Z"/><path class="cls-2" d="M90.4,70.6,53.9,5a10.26,10.26,0,0,0-2.7-3.2A5.46,5.46,0,0,0,48.7.5,8.21,8.21,0,0,0,45.9,0a8.9,8.9,0,0,0-5,1.5A9.9,9.9,0,0,0,37.7,5L30.3,18.6l-.2.3a14.29,14.29,0,0,1,3.7-.7H34a9.46,9.46,0,0,1,5.8,1.7A10.9,10.9,0,0,1,45,25.7l.8,1.3L74.9,78.8a11,11,0,0,0,3.3,3.5,9.77,9.77,0,0,0,4.7,1.3A8.22,8.22,0,0,0,89,81.1a8.58,8.58,0,0,0,2.8-6.5A7.45,7.45,0,0,0,90.4,70.6Z"/></g></g></svg>